<svg width="1111" height="871" viewBox="0 0 1111 871" fill="none" xmlns="http://www.w3.org/2000/svg">
<mask id="path-1-inside-1_389_219" fill="white">
<path d="M661.095 6.13246C655.184 12.6656 647.095 14.5322 647.095 9.24349C647.095 7.37687 645.851 6.13246 643.984 6.13246C642.429 6.13246 640.873 8.31018 640.873 11.1101C640.873 14.8434 639.317 15.7767 634.029 13.91C620.34 9.55459 586.43 8.62128 568.075 12.0434C554.075 14.5322 548.786 14.5322 547.231 12.0434C545.986 9.8657 541.942 9.24349 538.209 10.1768C534.165 11.1101 531.054 10.1768 529.809 7.37687C524.209 -7.24499 491.543 15.4656 491.543 34.1318C491.543 47.5092 495.899 54.6646 505.854 57.1534C513.632 59.3311 513.632 59.6422 508.654 65.2421C505.854 68.3531 498.077 71.7753 491.543 73.0197C477.855 75.1974 473.81 78.9307 472.255 89.8193C471.011 99.1524 458.255 103.508 441.145 100.708C424.656 98.2191 419.056 92.9303 419.367 80.4862C419.678 62.4422 408.79 57.1534 389.813 66.4865C385.146 68.9753 370.524 73.953 357.769 77.6862C332.57 84.8416 319.814 90.7526 317.948 96.0413C317.325 97.908 319.814 99.4635 323.236 99.4635C331.947 99.4635 331.325 104.441 321.992 110.663C310.481 118.13 283.415 114.396 262.571 102.575C248.572 94.4858 243.594 93.2414 221.817 93.2414C208.128 93.2414 192.573 94.7969 186.973 96.6636C179.818 99.1524 174.84 99.1524 168.307 96.6636C161.774 93.8636 157.729 93.8636 151.196 96.9747C143.73 100.086 142.174 100.086 139.685 95.4191C135.641 88.5749 128.797 88.5749 124.752 95.4191C121.953 100.708 121.33 100.397 113.864 93.5525C104.22 84.5305 103.286 86.086 102.042 118.752C101.42 132.129 99.5531 144.262 97.3754 146.44C95.5087 148.307 80.8869 150.796 64.7095 152.04C48.5321 153.284 33.2881 155.462 30.7992 157.018C28.6215 158.573 25.1994 160.129 23.3328 160.44C21.7772 160.44 18.3551 161.062 16.1774 161.062C11.5108 161.684 0.311103 185.328 0 194.661C0 198.394 3.11103 203.683 6.84427 206.172L13.9997 211.15L7.15538 213.327C-2.48883 216.127 -1.86662 220.172 8.08869 222.66C15.2441 224.527 18.3551 222.349 31.1103 208.661C39.199 199.95 47.5988 192.795 50.0876 192.795C52.5765 192.795 60.6652 187.817 68.1316 181.906C82.1313 170.706 94.5754 167.284 91.4644 175.373C90.5311 177.55 80.5758 187.817 69.3761 197.461C48.8432 215.816 40.4434 229.194 40.4434 244.438C40.4434 251.593 41.3768 252.215 47.2877 250.349C68.7539 243.815 69.065 243.815 66.5761 256.571C64.3984 268.082 64.7095 268.393 72.176 266.526C80.8869 264.348 90.22 271.193 83.9979 275.237C82.4424 276.17 80.8869 281.148 80.8869 285.814C80.8869 297.947 111.064 328.747 137.819 343.369C170.174 361.413 188.529 367.324 222.439 370.435C239.55 371.99 257.283 374.168 261.638 375.101C267.549 376.034 272.527 374.479 279.371 368.568C284.349 364.213 292.437 360.79 296.793 360.79C301.148 360.79 304.881 359.235 304.881 357.679C304.881 355.813 308.303 354.568 312.659 354.568C317.014 354.568 321.37 352.391 322.303 349.902C323.548 347.413 326.659 345.235 330.081 345.235C333.192 345.235 336.925 343.057 338.169 340.569C340.658 336.524 342.836 336.835 357.147 342.124C366.169 345.546 377.368 348.346 382.657 348.346C394.479 348.346 396.346 352.079 390.435 365.768C387.946 371.99 385.768 380.39 385.768 384.434C385.768 389.101 383.902 391.901 381.102 391.901C378.613 391.901 376.435 390.034 376.435 387.545C376.435 385.368 374.257 381.634 371.769 379.457C368.035 376.346 366.791 376.657 365.235 381.323C354.658 414.3 344.703 424.567 322.614 424.567C308.615 424.567 306.437 425.5 306.437 430.789C306.437 434.833 303.948 437.322 299.593 437.944C295.548 438.566 290.571 441.677 288.082 445.099C284.349 450.388 282.793 451.01 277.504 447.588C269.727 442.611 261.949 445.722 260.705 454.433C260.082 459.099 256.66 462.21 251.372 463.766C241.416 466.254 239.55 465.01 239.55 455.055C239.55 444.477 235.194 446.344 228.35 459.41L222.128 471.232L198.484 472.165L174.529 473.099L173.596 461.277C172.662 450.077 172.04 449.455 162.396 450.388C155.552 450.699 151.507 449.455 150.574 446.344C149.33 443.855 147.463 441.677 145.907 441.677C141.552 441.677 133.774 459.41 133.774 469.365C133.774 484.298 160.84 514.787 244.216 594.74C259.771 609.362 293.993 643.894 320.437 670.96C349.991 701.138 373.635 722.604 381.102 726.026C387.946 729.448 395.101 733.803 396.657 735.981C398.523 738.159 414.39 746.559 432.434 754.336L464.788 768.336L471.322 762.114L478.166 755.892L483.766 762.114C486.877 765.536 490.921 768.336 492.788 768.336C501.188 768.025 550.031 746.559 557.808 739.403C563.097 734.737 568.697 732.248 572.43 733.181C575.852 734.114 582.697 731.626 588.608 727.27C594.208 722.915 603.852 717.626 609.763 715.448C615.674 712.959 636.518 703.004 655.806 692.738C695.316 672.205 698.116 668.783 717.716 624.295C729.537 597.229 734.204 574.518 728.293 571.096C726.426 569.852 724.871 563.319 724.871 556.474C724.871 549.63 723.315 538.119 721.449 530.653C718.649 518.52 718.96 515.72 728.604 495.809L738.871 474.343L752.87 474.032C760.648 473.721 772.781 471.232 780.247 468.743C795.18 463.143 796.425 464.388 785.536 474.654C778.692 480.876 777.759 484.61 777.759 502.031C777.759 523.809 781.181 529.097 789.892 521.32C793.003 518.52 797.669 516.342 800.469 516.342C810.113 516.342 808.869 522.253 797.358 531.586C787.714 539.675 786.469 541.853 790.203 544.341C793.936 546.83 793.936 547.452 789.269 549.319C786.469 550.252 783.981 554.297 783.981 558.341C783.981 562.074 781.181 568.919 777.759 572.963C774.647 577.318 772.47 581.674 773.403 582.607C774.336 583.54 783.047 581.674 792.691 578.252C802.336 574.83 812.291 572.963 814.78 573.896C820.691 576.385 816.335 580.118 802.025 584.474C795.803 586.651 788.958 590.074 787.092 592.562C780.247 600.962 793.003 601.896 807.313 594.118C826.913 583.54 830.024 587.274 815.402 604.073C808.247 611.851 802.647 620.562 802.647 623.362C802.647 626.162 800.78 631.761 798.291 635.495C795.491 639.85 793.936 648.872 794.247 659.45C794.869 674.694 795.803 676.56 802.025 677.494C805.758 678.116 808.869 680.605 808.869 683.094C808.869 685.582 810.735 688.382 813.224 689.316C815.713 690.249 817.269 692.738 816.335 694.915C815.402 697.093 821.002 714.204 828.779 733.181C849.001 782.647 849.312 786.38 834.379 818.112C819.757 848.912 814.78 871 822.557 871C825.046 871 832.202 866.645 837.801 861.667C843.712 856.378 850.246 852.334 852.112 852.334C853.979 852.334 855.534 849.845 855.534 846.734C855.534 843.623 860.512 839.267 868.912 835.534C876.067 832.112 882.911 829.001 883.845 828.379C885.089 827.757 888.2 829.623 891 832.423C895.978 837.401 895.978 838.023 888.511 845.801C884.156 850.467 880.423 855.756 880.423 857.934C880.423 862.289 888.822 862.911 890.378 858.867C891 857.311 894.111 855.445 897.533 854.823C902.2 854.2 903.755 855.756 903.755 861.356C904.066 871.933 910.289 872.867 916.511 863.534C919.311 859.178 925.844 854.2 931.444 852.956C940.777 850.467 941.088 849.845 942.643 828.69C943.577 816.868 946.065 804.113 948.243 800.38C953.532 790.735 952.91 783.58 945.754 776.113C940.154 770.202 940.154 768.958 944.51 762.736L949.176 755.892L957.265 762.114C961.621 765.536 967.22 768.336 969.398 768.336C971.576 768.336 974.998 771.136 976.865 774.558C980.598 781.713 993.975 782.958 1006.42 777.047C1012.02 774.558 1014.2 771.136 1014.2 764.603C1014.2 757.447 1016.06 754.958 1023.53 752.47C1031.31 749.67 1032.86 747.492 1032.55 739.403C1032.24 713.582 1008.91 683.716 985.887 679.049C980.909 678.116 976.865 675.938 976.865 674.383C976.865 671.583 979.354 670.338 993.353 667.227C999.575 665.983 1003.62 662.25 1006.42 655.405C1008.91 649.805 1014.2 643.272 1018.86 641.406C1023.22 639.228 1028.2 633.939 1030.06 628.962C1033.49 619.006 1053.71 606.562 1066.77 606.562C1078.28 606.562 1091.04 600.962 1093.53 594.74C1095.08 590.696 1091.04 590.385 1063.35 592.562C1010.46 596.918 1010.46 596.918 1005.18 586.963C1000.51 578.874 1000.51 577.941 1005.8 574.207C1012.33 569.23 1012.33 566.119 1006.73 554.919C1001.44 545.275 1004.86 535.008 1012.95 535.008C1016.69 535.008 1043.13 520.698 1057.44 511.053C1058.06 510.742 1057.13 508.253 1054.95 506.076C1052.15 502.654 1052.46 500.787 1056.2 497.676C1062.42 492.698 1062.11 488.965 1054.95 472.477C1051.84 465.01 1048.11 452.877 1046.86 446.033L1045 433.277L1057.44 433.589C1065.22 433.589 1072.06 432.033 1075.17 428.611C1082.64 421.144 1077.66 415.856 1064.91 417.722C1056.2 419.278 1052.46 418.033 1046.55 412.122C1035.97 401.545 1037.22 398.123 1050.91 398.123C1060.24 398.123 1064.91 395.945 1071.75 388.79C1076.73 383.501 1084.82 378.212 1089.8 376.968C1096.95 375.101 1099.75 371.679 1104.42 357.679C1107.84 348.346 1110.33 336.835 1110.64 331.858C1110.64 324.391 1109.39 323.458 1100.99 323.458C1092.91 323.458 1091.04 321.591 1087 311.636C1076.42 283.948 1072.37 278.348 1060.86 276.792C1051.84 275.548 1049.66 273.681 1048.42 265.904C1047.17 259.371 1044.69 256.26 1040.02 255.637C1036.29 255.015 1031.62 252.526 1029.75 250.038C1027.57 247.549 1021.35 245.682 1016.06 245.682C1009.22 245.682 1003.93 243.193 999.264 237.905C992.109 229.816 990.553 229.194 974.998 230.127C962.554 230.749 959.754 226.394 959.754 206.794V191.239H948.865C940.466 191.239 937.977 189.683 937.043 185.017C936.421 181.595 931.132 173.817 924.91 167.595C916.2 158.262 914.644 154.84 916.511 147.996C917.444 143.329 920.555 138.663 922.733 137.729C928.644 135.551 928.021 128.396 920.555 112.841C913.4 98.2191 908.733 96.0413 906.244 105.686C904.066 113.774 886.645 123.73 886.645 116.885C886.645 114.708 878.556 105.997 868.912 97.5969C857.09 87.3305 852.734 82.0417 856.157 81.4195C858.645 80.7973 862.379 77.064 864.556 72.7086C866.423 68.6642 870.778 63.9977 874.512 62.7533C881.045 60.2645 881.045 59.9533 872.956 54.9757C866.734 50.6202 864.867 46.887 864.867 38.4872C864.867 28.843 864.245 27.5986 860.201 31.0207C857.712 32.8874 854.29 33.8207 852.734 32.5762C847.446 29.4652 837.801 36.6206 834.379 45.9537C831.891 53.1091 828.779 55.5979 820.38 57.1534C804.825 59.9533 793.625 56.5312 779.625 44.3982C764.381 31.6429 756.603 31.3318 751.937 43.1538L748.515 52.1758L741.982 42.2205C737.937 35.9984 730.782 31.0207 722.382 28.5319C713.049 25.4209 709.316 22.6209 709.316 18.2655C709.316 13.5989 707.138 12.3545 698.738 12.3545C685.05 12.3545 678.205 9.55459 678.205 4.26583C678.205 -2.26734 667.628 -1.02292 661.095 6.13246Z"/>
</mask>
<path d="M661.095 6.13246C655.184 12.6656 647.095 14.5322 647.095 9.24349C647.095 7.37687 645.851 6.13246 643.984 6.13246C642.429 6.13246 640.873 8.31018 640.873 11.1101C640.873 14.8434 639.317 15.7767 634.029 13.91C620.34 9.55459 586.43 8.62128 568.075 12.0434C554.075 14.5322 548.786 14.5322 547.231 12.0434C545.986 9.8657 541.942 9.24349 538.209 10.1768C534.165 11.1101 531.054 10.1768 529.809 7.37687C524.209 -7.24499 491.543 15.4656 491.543 34.1318C491.543 47.5092 495.899 54.6646 505.854 57.1534C513.632 59.3311 513.632 59.6422 508.654 65.2421C505.854 68.3531 498.077 71.7753 491.543 73.0197C477.855 75.1974 473.81 78.9307 472.255 89.8193C471.011 99.1524 458.255 103.508 441.145 100.708C424.656 98.2191 419.056 92.9303 419.367 80.4862C419.678 62.4422 408.79 57.1534 389.813 66.4865C385.146 68.9753 370.524 73.953 357.769 77.6862C332.57 84.8416 319.814 90.7526 317.948 96.0413C317.325 97.908 319.814 99.4635 323.236 99.4635C331.947 99.4635 331.325 104.441 321.992 110.663C310.481 118.13 283.415 114.396 262.571 102.575C248.572 94.4858 243.594 93.2414 221.817 93.2414C208.128 93.2414 192.573 94.7969 186.973 96.6636C179.818 99.1524 174.84 99.1524 168.307 96.6636C161.774 93.8636 157.729 93.8636 151.196 96.9747C143.73 100.086 142.174 100.086 139.685 95.4191C135.641 88.5749 128.797 88.5749 124.752 95.4191C121.953 100.708 121.33 100.397 113.864 93.5525C104.22 84.5305 103.286 86.086 102.042 118.752C101.42 132.129 99.5531 144.262 97.3754 146.44C95.5087 148.307 80.8869 150.796 64.7095 152.04C48.5321 153.284 33.2881 155.462 30.7992 157.018C28.6215 158.573 25.1994 160.129 23.3328 160.44C21.7772 160.44 18.3551 161.062 16.1774 161.062C11.5108 161.684 0.311103 185.328 0 194.661C0 198.394 3.11103 203.683 6.84427 206.172L13.9997 211.15L7.15538 213.327C-2.48883 216.127 -1.86662 220.172 8.08869 222.66C15.2441 224.527 18.3551 222.349 31.1103 208.661C39.199 199.95 47.5988 192.795 50.0876 192.795C52.5765 192.795 60.6652 187.817 68.1316 181.906C82.1313 170.706 94.5754 167.284 91.4644 175.373C90.5311 177.55 80.5758 187.817 69.3761 197.461C48.8432 215.816 40.4434 229.194 40.4434 244.438C40.4434 251.593 41.3768 252.215 47.2877 250.349C68.7539 243.815 69.065 243.815 66.5761 256.571C64.3984 268.082 64.7095 268.393 72.176 266.526C80.8869 264.348 90.22 271.193 83.9979 275.237C82.4424 276.17 80.8869 281.148 80.8869 285.814C80.8869 297.947 111.064 328.747 137.819 343.369C170.174 361.413 188.529 367.324 222.439 370.435C239.55 371.99 257.283 374.168 261.638 375.101C267.549 376.034 272.527 374.479 279.371 368.568C284.349 364.213 292.437 360.79 296.793 360.79C301.148 360.79 304.881 359.235 304.881 357.679C304.881 355.813 308.303 354.568 312.659 354.568C317.014 354.568 321.37 352.391 322.303 349.902C323.548 347.413 326.659 345.235 330.081 345.235C333.192 345.235 336.925 343.057 338.169 340.569C340.658 336.524 342.836 336.835 357.147 342.124C366.169 345.546 377.368 348.346 382.657 348.346C394.479 348.346 396.346 352.079 390.435 365.768C387.946 371.99 385.768 380.39 385.768 384.434C385.768 389.101 383.902 391.901 381.102 391.901C378.613 391.901 376.435 390.034 376.435 387.545C376.435 385.368 374.257 381.634 371.769 379.457C368.035 376.346 366.791 376.657 365.235 381.323C354.658 414.3 344.703 424.567 322.614 424.567C308.615 424.567 306.437 425.5 306.437 430.789C306.437 434.833 303.948 437.322 299.593 437.944C295.548 438.566 290.571 441.677 288.082 445.099C284.349 450.388 282.793 451.01 277.504 447.588C269.727 442.611 261.949 445.722 260.705 454.433C260.082 459.099 256.66 462.21 251.372 463.766C241.416 466.254 239.55 465.01 239.55 455.055C239.55 444.477 235.194 446.344 228.35 459.41L222.128 471.232L198.484 472.165L174.529 473.099L173.596 461.277C172.662 450.077 172.04 449.455 162.396 450.388C155.552 450.699 151.507 449.455 150.574 446.344C149.33 443.855 147.463 441.677 145.907 441.677C141.552 441.677 133.774 459.41 133.774 469.365C133.774 484.298 160.84 514.787 244.216 594.74C259.771 609.362 293.993 643.894 320.437 670.96C349.991 701.138 373.635 722.604 381.102 726.026C387.946 729.448 395.101 733.803 396.657 735.981C398.523 738.159 414.39 746.559 432.434 754.336L464.788 768.336L471.322 762.114L478.166 755.892L483.766 762.114C486.877 765.536 490.921 768.336 492.788 768.336C501.188 768.025 550.031 746.559 557.808 739.403C563.097 734.737 568.697 732.248 572.43 733.181C575.852 734.114 582.697 731.626 588.608 727.27C594.208 722.915 603.852 717.626 609.763 715.448C615.674 712.959 636.518 703.004 655.806 692.738C695.316 672.205 698.116 668.783 717.716 624.295C729.537 597.229 734.204 574.518 728.293 571.096C726.426 569.852 724.871 563.319 724.871 556.474C724.871 549.63 723.315 538.119 721.449 530.653C718.649 518.52 718.96 515.72 728.604 495.809L738.871 474.343L752.87 474.032C760.648 473.721 772.781 471.232 780.247 468.743C795.18 463.143 796.425 464.388 785.536 474.654C778.692 480.876 777.759 484.61 777.759 502.031C777.759 523.809 781.181 529.097 789.892 521.32C793.003 518.52 797.669 516.342 800.469 516.342C810.113 516.342 808.869 522.253 797.358 531.586C787.714 539.675 786.469 541.853 790.203 544.341C793.936 546.83 793.936 547.452 789.269 549.319C786.469 550.252 783.981 554.297 783.981 558.341C783.981 562.074 781.181 568.919 777.759 572.963C774.647 577.318 772.47 581.674 773.403 582.607C774.336 583.54 783.047 581.674 792.691 578.252C802.336 574.83 812.291 572.963 814.78 573.896C820.691 576.385 816.335 580.118 802.025 584.474C795.803 586.651 788.958 590.074 787.092 592.562C780.247 600.962 793.003 601.896 807.313 594.118C826.913 583.54 830.024 587.274 815.402 604.073C808.247 611.851 802.647 620.562 802.647 623.362C802.647 626.162 800.78 631.761 798.291 635.495C795.491 639.85 793.936 648.872 794.247 659.45C794.869 674.694 795.803 676.56 802.025 677.494C805.758 678.116 808.869 680.605 808.869 683.094C808.869 685.582 810.735 688.382 813.224 689.316C815.713 690.249 817.269 692.738 816.335 694.915C815.402 697.093 821.002 714.204 828.779 733.181C849.001 782.647 849.312 786.38 834.379 818.112C819.757 848.912 814.78 871 822.557 871C825.046 871 832.202 866.645 837.801 861.667C843.712 856.378 850.246 852.334 852.112 852.334C853.979 852.334 855.534 849.845 855.534 846.734C855.534 843.623 860.512 839.267 868.912 835.534C876.067 832.112 882.911 829.001 883.845 828.379C885.089 827.757 888.2 829.623 891 832.423C895.978 837.401 895.978 838.023 888.511 845.801C884.156 850.467 880.423 855.756 880.423 857.934C880.423 862.289 888.822 862.911 890.378 858.867C891 857.311 894.111 855.445 897.533 854.823C902.2 854.2 903.755 855.756 903.755 861.356C904.066 871.933 910.289 872.867 916.511 863.534C919.311 859.178 925.844 854.2 931.444 852.956C940.777 850.467 941.088 849.845 942.643 828.69C943.577 816.868 946.065 804.113 948.243 800.38C953.532 790.735 952.91 783.58 945.754 776.113C940.154 770.202 940.154 768.958 944.51 762.736L949.176 755.892L957.265 762.114C961.621 765.536 967.22 768.336 969.398 768.336C971.576 768.336 974.998 771.136 976.865 774.558C980.598 781.713 993.975 782.958 1006.42 777.047C1012.02 774.558 1014.2 771.136 1014.2 764.603C1014.2 757.447 1016.06 754.958 1023.53 752.47C1031.31 749.67 1032.86 747.492 1032.55 739.403C1032.24 713.582 1008.91 683.716 985.887 679.049C980.909 678.116 976.865 675.938 976.865 674.383C976.865 671.583 979.354 670.338 993.353 667.227C999.575 665.983 1003.62 662.25 1006.42 655.405C1008.91 649.805 1014.2 643.272 1018.86 641.406C1023.22 639.228 1028.2 633.939 1030.06 628.962C1033.49 619.006 1053.71 606.562 1066.77 606.562C1078.28 606.562 1091.04 600.962 1093.53 594.74C1095.08 590.696 1091.04 590.385 1063.35 592.562C1010.46 596.918 1010.46 596.918 1005.18 586.963C1000.51 578.874 1000.51 577.941 1005.8 574.207C1012.33 569.23 1012.33 566.119 1006.73 554.919C1001.44 545.275 1004.86 535.008 1012.95 535.008C1016.69 535.008 1043.13 520.698 1057.44 511.053C1058.06 510.742 1057.13 508.253 1054.95 506.076C1052.15 502.654 1052.46 500.787 1056.2 497.676C1062.42 492.698 1062.11 488.965 1054.95 472.477C1051.84 465.01 1048.11 452.877 1046.86 446.033L1045 433.277L1057.44 433.589C1065.22 433.589 1072.06 432.033 1075.17 428.611C1082.64 421.144 1077.66 415.856 1064.91 417.722C1056.2 419.278 1052.46 418.033 1046.55 412.122C1035.97 401.545 1037.22 398.123 1050.91 398.123C1060.24 398.123 1064.91 395.945 1071.75 388.79C1076.73 383.501 1084.82 378.212 1089.8 376.968C1096.95 375.101 1099.75 371.679 1104.42 357.679C1107.84 348.346 1110.33 336.835 1110.64 331.858C1110.64 324.391 1109.39 323.458 1100.99 323.458C1092.91 323.458 1091.04 321.591 1087 311.636C1076.42 283.948 1072.37 278.348 1060.86 276.792C1051.84 275.548 1049.66 273.681 1048.42 265.904C1047.17 259.371 1044.69 256.26 1040.02 255.637C1036.29 255.015 1031.62 252.526 1029.75 250.038C1027.57 247.549 1021.35 245.682 1016.06 245.682C1009.22 245.682 1003.93 243.193 999.264 237.905C992.109 229.816 990.553 229.194 974.998 230.127C962.554 230.749 959.754 226.394 959.754 206.794V191.239H948.865C940.466 191.239 937.977 189.683 937.043 185.017C936.421 181.595 931.132 173.817 924.91 167.595C916.2 158.262 914.644 154.84 916.511 147.996C917.444 143.329 920.555 138.663 922.733 137.729C928.644 135.551 928.021 128.396 920.555 112.841C913.4 98.2191 908.733 96.0413 906.244 105.686C904.066 113.774 886.645 123.73 886.645 116.885C886.645 114.708 878.556 105.997 868.912 97.5969C857.09 87.3305 852.734 82.0417 856.157 81.4195C858.645 80.7973 862.379 77.064 864.556 72.7086C866.423 68.6642 870.778 63.9977 874.512 62.7533C881.045 60.2645 881.045 59.9533 872.956 54.9757C866.734 50.6202 864.867 46.887 864.867 38.4872C864.867 28.843 864.245 27.5986 860.201 31.0207C857.712 32.8874 854.29 33.8207 852.734 32.5762C847.446 29.4652 837.801 36.6206 834.379 45.9537C831.891 53.1091 828.779 55.5979 820.38 57.1534C804.825 59.9533 793.625 56.5312 779.625 44.3982C764.381 31.6429 756.603 31.3318 751.937 43.1538L748.515 52.1758L741.982 42.2205C737.937 35.9984 730.782 31.0207 722.382 28.5319C713.049 25.4209 709.316 22.6209 709.316 18.2655C709.316 13.5989 707.138 12.3545 698.738 12.3545C685.05 12.3545 678.205 9.55459 678.205 4.26583C678.205 -2.26734 667.628 -1.02292 661.095 6.13246Z" stroke="black" stroke-width="2" mask="url(#path-1-inside-1_389_219)"/>
<path d="M741.667 550.064C742.72 550.064 743.506 549.931 744.179 549.524C744.853 549.117 745.479 548.394 746.118 547.079C747.246 544.755 748.331 540.765 749.838 533.955L750.511 530.86L750.512 530.855C752.198 523.346 750.492 516.92 747.33 513.534C745.755 511.848 743.831 510.924 741.775 510.946C739.716 510.969 737.443 511.942 735.176 514.208C733.432 515.952 732.381 519.038 731.971 522.794C731.564 526.529 731.802 530.835 732.553 534.919C733.305 539.006 734.564 542.835 736.174 545.629C737.804 548.456 739.698 550.064 741.667 550.064Z" stroke="black"/>
</svg>
